<?xml version="1.0" encoding="utf-8"?>
<!-- Generator: Adobe Illustrator 25.0.1, SVG Export Plug-In . SVG Version: 6.00 Build 0)  -->
<svg version="1.1" id="Laag_1" xmlns="http://www.w3.org/2000/svg" xmlns:xlink="http://www.w3.org/1999/xlink" x="0px" y="0px"
	 viewBox="0 0 283.46 341.64" style="enable-background:new 0 0 283.46 341.64;" xml:space="preserve">
<style type="text/css">
	.st0{fill:#106F5A;}
	.st1{fill:#FFFFFF;}
</style>
<path class="st0" d="M203.5,83.87h-60.37H82.77c0,0-52.59,104.09,60.37,145.82C256.08,187.96,203.5,83.87,203.5,83.87z"/>
<g>
	<path class="st0" d="M47.73,272.16v-23.12c0-0.52,0.56-1.08,1.12-1.08c0.66,0,1.15,0.56,1.15,1.08v23.12
		c0,0.56-0.49,1.15-1.15,1.15C48.29,273.31,47.73,272.72,47.73,272.16z"/>
	<path class="st0" d="M58.3,271.74v-22.7c0-0.45,0.45-0.91,0.84-1.01l0.24-0.07c0.42,0,0.77,0.24,1.01,0.56l9.9,17.65
		c3.31-5.89,6.66-11.75,9.94-17.65c0.24-0.24,0.59-0.56,0.94-0.56l0.31,0.07c0.45,0.1,0.87,0.56,0.87,1.01l-0.03,22.7
		c0,0.56-0.49,1.08-1.15,1.08c-0.52,0-1.05-0.52-1.05-1.08v-18.48c-2.96,5.27-5.93,10.46-8.89,15.73v-0.03
		c-0.1,0.21-0.24,0.52-0.77,0.63c-0.56,0-0.91-0.21-1.12-0.7v0.03c-3.14-5.55-5.65-10.08-8.82-15.62v18.45
		c0,0.56-0.52,1.08-1.08,1.08C58.89,272.83,58.3,272.3,58.3,271.74z"/>
	<path class="st0" d="M91.08,271.74v-22.7c0-0.45,0.45-0.91,0.84-1.01l0.24-0.07c0.42,0,0.77,0.24,1.01,0.56l9.9,17.65
		c3.31-5.89,6.66-11.75,9.94-17.65c0.24-0.24,0.59-0.56,0.94-0.56l0.31,0.07c0.45,0.1,0.87,0.56,0.87,1.01l-0.03,22.7
		c0,0.56-0.49,1.08-1.15,1.08c-0.52,0-1.05-0.52-1.05-1.08v-18.48c-2.96,5.27-5.93,10.46-8.89,15.73v-0.03
		c-0.1,0.21-0.24,0.52-0.77,0.63c-0.56,0-0.91-0.21-1.12-0.7v0.03c-3.14-5.55-5.65-10.08-8.82-15.62v18.45
		c0,0.56-0.52,1.08-1.08,1.08C91.67,272.83,91.08,272.3,91.08,271.74z"/>
	<path class="st0" d="M123.96,263.23v-14.19c0-0.56,0.52-1.12,1.01-1.12c0.63,0,1.15,0.56,1.15,1.12v14.19
		c0,4.05,3.31,7.32,7.32,7.32c4.05,0,7.32-3.28,7.32-7.32v-14.19c0-0.56,0.56-1.12,1.12-1.12c0.59,0,1.12,0.56,1.12,1.12v14.19
		c0,5.27-4.32,9.59-9.56,9.59C128.18,272.83,123.96,268.5,123.96,263.23z"/>
	<path class="st0" d="M152.25,271.74v-22.7c0-0.35,0.28-0.73,0.59-0.91c0.45-0.21,0.77-0.17,1.15,0.1h-0.03
		c4.74,3,9.03,5.72,13.78,8.72v-7.92c0-0.52,0.42-1.08,1.05-1.08c0.66,0,1.15,0.56,1.15,1.08v22.7c0,0.56-0.49,1.08-1.12,1.08
		c-0.66,0-1.08-0.52-1.08-1.08v-12.21c-4.6-2.93-8.75-5.62-13.32-8.51v20.72c0,0.56-0.42,1.08-1.05,1.08
		C152.7,272.83,152.25,272.3,152.25,271.74z"/>
	<path class="st0" d="M180.22,272.16v-23.12c0-0.52,0.56-1.08,1.12-1.08c0.66,0,1.15,0.56,1.15,1.08v23.12
		c0,0.56-0.49,1.15-1.15,1.15C180.77,273.31,180.22,272.72,180.22,272.16z"/>
	<path class="st0" d="M189.56,249.04c0-0.56,0.56-1.12,1.05-1.12h15.07c0.66,0,1.08,0.56,1.08,1.12c0,0.59-0.42,1.19-1.08,1.19
		h-6.42v21.52c0,0.49-0.49,1.08-1.05,1.08c-0.63,0-1.12-0.59-1.12-1.08v-21.52h-6.49C190.12,250.23,189.56,249.63,189.56,249.04z"/>
	<path class="st0" d="M223.7,271.74v-5.41c-3.17-5.55-6.42-11.23-9.59-16.78c-0.1-0.21-0.21-0.52-0.14-0.77
		c0.14-0.28,0.38-0.59,0.7-0.8c0.42-0.21,1.12-0.03,1.36,0.56v-0.03c3.03,5.27,5.79,10.01,8.79,15.24
		c2.96-5.16,6.1-10.71,9.07-15.87l1.85,1.19l-9.83,17.3v5.37c0,0.56-0.52,1.08-1.08,1.08C224.19,272.83,223.7,272.3,223.7,271.74z"
		/>
</g>
<g>
	<path class="st1" d="M158.89,167.11h15.12v6.73h-15.12v24.52h-7.99v-24.52h-45.63v-4.53l44.9-67.95h8.73V167.11z M115.06,167.11
		h35.84v-55.43l-3.53,6.13L115.06,167.11z"/>
</g>
</svg>
