<?xml version="1.0" encoding="utf-8"?>
<!-- Generator: Adobe Illustrator 25.0.1, SVG Export Plug-In . SVG Version: 6.00 Build 0)  -->
<svg version="1.1" id="Laag_1" xmlns="http://www.w3.org/2000/svg" xmlns:xlink="http://www.w3.org/1999/xlink" x="0px" y="0px"
	 viewBox="0 0 283.46 341.64" style="enable-background:new 0 0 283.46 341.64;" xml:space="preserve">
<style type="text/css">
	.st0{fill:url(#SVGID_1_);}
	.st1{fill:url(#SVGID_2_);}
	.st2{fill:#89C8AA;}
</style>
<g>
	
		<linearGradient id="SVGID_1_" gradientUnits="userSpaceOnUse" x1="131.4398" y1="241.9028" x2="140.0739" y2="214.2739" gradientTransform="matrix(1 0 0 -1 0 342.9291)">
		<stop  offset="0" style="stop-color:#32BEF0"/>
		<stop  offset="0.2034" style="stop-color:#00B1EB"/>
		<stop  offset="0.3424" style="stop-color:#26BADD"/>
		<stop  offset="0.5013" style="stop-color:#64C3CF"/>
		<stop  offset="0.646" style="stop-color:#7CC8C5"/>
		<stop  offset="0.7623" style="stop-color:#83CAC2"/>
	</linearGradient>
	<polygon class="st0" points="154.58,82.86 110.63,126.65 149.28,92.37 145.73,120.67 	"/>
	
		<linearGradient id="SVGID_2_" gradientUnits="userSpaceOnUse" x1="141.735" y1="271.0091" x2="141.735" y2="122.4767" gradientTransform="matrix(1 0 0 -1 0 342.9291)">
		<stop  offset="0" style="stop-color:#32BEF0"/>
		<stop  offset="0.2034" style="stop-color:#00B1EB"/>
		<stop  offset="0.3424" style="stop-color:#26BADD"/>
		<stop  offset="0.5013" style="stop-color:#64C3CF"/>
		<stop  offset="0.646" style="stop-color:#7CC8C5"/>
		<stop  offset="0.7623" style="stop-color:#83CAC2"/>
	</linearGradient>
	<path class="st1" d="M155.09,219.52l15.78-75.1l55.5-8.95L196.16,45.6l-14.3,68.63l14.76-56.64l17.5,58.77l-38.74,6.08l16.11-76.85
		H87.74L57.1,136.78l76.79-79.4l-70.05,67.7L90.6,50.77l59.72,0.22l-89.53,90.44l13.95,17.56l11.61-1.82l0,0l60.78-9.55
		l-16.32,76.27l-45.78-58.47l52.11-8.48l-5.71,41.14l9.5-45.58l-58.41,9.71l0,0l-1.43,0.24l-0.43,0.07l0,0l-2.74,0.46l64.05,80.61
		l83.59-105.21l-50.64,8.44l-7.31,34.83l9.89-32.96l40.6-5.72L155.09,219.52z M92.72,135.43l72.32-71.57l-13.33,62.3L92.72,135.43z"
		/>
</g>
<g>
	<path class="st2" d="M37.24,291.72c0,1.06-0.89,1.9-1.95,1.9h-2.64v6.58c0,1.15-0.89,2.1-1.99,2.1s-1.99-0.95-1.99-2.1v-6.58h-9
		c-1.79,0-2.31-1.73-1.69-3.42l9.04-23.82c0.37-1,1.15-1.43,1.84-1.43c1.21,0,1.84,0.84,1.84,1.84c0,0.52-0.26,1.15-0.41,1.53
		l-7.94,21.52h6.3v-9.36c0-1.15,0.89-2.1,1.99-2.1s1.99,0.95,1.99,2.1v9.36h2.64C36.33,289.83,37.24,290.67,37.24,291.72z"/>
	<path class="st2" d="M59.17,300.3v-33.14c0-1.1,0.89-1.99,1.99-1.99s1.99,0.89,1.99,1.99v33.14c0,1.1-0.89,1.99-1.99,1.99
		S59.17,301.4,59.17,300.3z"/>
	<path class="st2" d="M75.89,300.3v-26.61c0-5.32,2.73-8.63,7.68-8.63c2.36,0,4.37,1.06,5.69,2.84c1.32-1.79,3.31-2.84,5.69-2.84
		c4.95,0,7.68,3.31,7.68,8.63v26.61c0,1.1-0.89,1.99-1.99,1.99s-1.99-0.89-1.99-1.99v-26.04c0-3.79-1.26-5.52-3.68-5.52
		c-2.42,0-3.68,1.73-3.68,5.52v26.04c0,1.1-0.89,1.99-1.99,1.99s-1.99-0.89-1.99-1.99v-26.04c0-3.79-1.26-5.52-3.68-5.52
		s-3.68,1.73-3.68,5.52v26.04c0,1.1-0.89,1.99-1.99,1.99C76.8,302.29,75.89,301.4,75.89,300.3z"/>
	<path class="st2" d="M114.93,300.3v-26.61c0-5.32,2.73-8.63,7.68-8.63c2.36,0,4.37,1.06,5.69,2.84c1.32-1.79,3.31-2.84,5.69-2.84
		c4.95,0,7.68,3.31,7.68,8.63v26.61c0,1.1-0.89,1.99-1.99,1.99s-1.99-0.89-1.99-1.99v-26.04c0-3.79-1.26-5.52-3.68-5.52
		c-2.42,0-3.68,1.73-3.68,5.52v26.04c0,1.1-0.89,1.99-1.99,1.99s-1.99-0.89-1.99-1.99v-26.04c0-3.79-1.26-5.52-3.68-5.52
		s-3.68,1.73-3.68,5.52v26.04c0,1.1-0.89,1.99-1.99,1.99C115.83,302.29,114.93,301.4,114.93,300.3z"/>
	<path class="st2" d="M153.86,293.98v-26.82c0-1.1,0.89-1.99,1.99-1.99s1.99,0.89,1.99,1.99v26.15c0,3.94,1.36,5.52,3.89,5.52
		s3.89-1.58,3.89-5.52v-26.15c0-1.1,0.89-1.99,1.99-1.99s1.99,0.89,1.99,1.99v26.82c0,5.32-2.73,8.63-7.89,8.63
		C156.6,302.61,153.86,299.3,153.86,293.98z"/>
	<path class="st2" d="M181.74,300.3v-26.82c0-5.32,2.68-8.63,7.79-8.63s7.79,3.31,7.79,8.63v26.82c0,1.1-0.89,1.99-1.99,1.99
		s-1.99-0.89-1.99-1.99v-26.15c0-3.94-1.32-5.52-3.79-5.52s-3.79,1.58-3.79,5.52v26.15c0,1.1-0.89,1.99-1.99,1.99
		C182.64,302.29,181.74,301.4,181.74,300.3z"/>
	<path class="st2" d="M209.94,300.3v-33.14c0-1.1,0.89-1.99,1.99-1.99s1.99,0.89,1.99,1.99v33.14c0,1.1-0.89,1.99-1.99,1.99
		S209.94,301.4,209.94,300.3z"/>
	<path class="st2" d="M230.55,300.3v-31.24h-4.52c-1.06,0-1.95-0.78-1.95-1.84s0.89-1.84,1.95-1.84h13.04
		c1.06,0,1.95,0.78,1.95,1.84s-0.89,1.84-1.95,1.84h-4.52v31.24c0,1.1-0.89,1.99-1.99,1.99S230.55,301.4,230.55,300.3z"/>
	<path class="st2" d="M266,267.16v14.88c0,4.58-2.05,7.68-5.89,8.41v9.84c0,1.1-0.89,1.99-1.99,1.99c-1.1,0-1.99-0.89-1.99-1.99
		v-9.84c-3.85-0.74-5.89-3.83-5.89-8.41v-14.88c0-1.1,0.89-1.99,1.99-1.99s1.99,0.89,1.99,1.99v14.21c0,3.94,1.36,5.52,3.89,5.52
		c2.53,0,3.89-1.58,3.89-5.52v-14.21c0-1.1,0.89-1.99,1.99-1.99C265.11,265.17,266,266.06,266,267.16z"/>
</g>
</svg>
