<?xml version="1.0" encoding="utf-8"?>
<!-- Generator: Adobe Illustrator 25.0.1, SVG Export Plug-In . SVG Version: 6.00 Build 0)  -->
<svg version="1.1" id="Laag_1" xmlns="http://www.w3.org/2000/svg" xmlns:xlink="http://www.w3.org/1999/xlink" x="0px" y="0px"
	 viewBox="0 0 283.46 341.64" style="enable-background:new 0 0 283.46 341.64;" xml:space="preserve">
<style type="text/css">
	.st0{fill:#106F5A;}
	.st1{fill:#FFFFFF;}
</style>
<path class="st0" d="M217.57,38.83H137.9H58.22c0,0-69.4,137.38,79.67,192.47C286.97,176.21,217.57,38.83,217.57,38.83z"/>
<g>
	<g>
		<path class="st1" d="M68,161.76c-0.96,0-1.79-0.33-2.47-0.98c-0.69-0.65-1.03-1.46-1.03-2.42V81.57c0-0.96,0.34-1.77,1.03-2.42
			c0.69-0.65,1.51-0.98,2.47-0.98c1.03,0,1.86,0.33,2.47,0.98c0.62,0.65,0.93,1.46,0.93,2.42v76.79c0,0.96-0.31,1.77-0.93,2.42
			C69.85,161.44,69.03,161.76,68,161.76z"/>
		<path class="st1" d="M118.09,161.76c-0.96,0-1.79-0.31-2.47-0.93c-0.69-0.62-1.03-1.41-1.03-2.37V96.62l-7.32,17.01
			c-0.34,0.62-0.81,1.08-1.39,1.39c-0.58,0.31-1.19,0.48-1.8,0.52c-0.62,0.04-1.24-0.1-1.86-0.41s-1.07-0.81-1.34-1.49l-7.52-17.01
			v61.84c0,0.96-0.34,1.75-1.03,2.37c-0.69,0.62-1.41,0.93-2.16,0.93c-1.03,0-1.91-0.31-2.63-0.93c-0.72-0.62-1.08-1.41-1.08-2.37
			V81.47c0-0.96,0.27-1.72,0.82-2.27c0.55-0.55,1.2-0.89,1.96-1.03c0.76-0.14,1.51-0.05,2.27,0.26c0.76,0.31,1.34,0.88,1.75,1.7
			l10.72,23.81c1.65-3.64,3.5-7.59,5.57-11.85c2.06-4.26,3.92-8.25,5.57-11.96c0.41-0.82,0.96-1.39,1.65-1.7
			c0.69-0.31,1.37-0.39,2.06-0.26c0.69,0.14,1.29,0.48,1.8,1.03c0.52,0.55,0.81,1.31,0.88,2.27v76.99c0,0.96-0.31,1.75-0.93,2.37
			C119.95,161.45,119.12,161.76,118.09,161.76z"/>
		<path class="st1" d="M168.18,161.76c-0.96,0-1.79-0.31-2.47-0.93c-0.69-0.62-1.03-1.41-1.03-2.37V96.62l-7.32,17.01
			c-0.35,0.62-0.81,1.08-1.39,1.39s-1.18,0.48-1.8,0.52c-0.62,0.04-1.24-0.1-1.86-0.41s-1.07-0.81-1.34-1.49l-7.52-17.01v61.84
			c0,0.96-0.34,1.75-1.03,2.37c-0.69,0.62-1.41,0.93-2.16,0.93c-1.03,0-1.91-0.31-2.63-0.93c-0.72-0.62-1.08-1.41-1.08-2.37V81.47
			c0-0.96,0.27-1.72,0.82-2.27c0.55-0.55,1.2-0.89,1.96-1.03c0.76-0.14,1.51-0.05,2.27,0.26c0.76,0.31,1.34,0.88,1.75,1.7
			l10.72,23.81c1.65-3.64,3.5-7.59,5.57-11.85c2.06-4.26,3.92-8.25,5.57-11.96c0.41-0.82,0.96-1.39,1.65-1.7
			c0.69-0.31,1.37-0.39,2.06-0.26c0.69,0.14,1.29,0.48,1.8,1.03c0.52,0.55,0.81,1.31,0.88,2.27v76.99c0,0.96-0.31,1.75-0.93,2.37
			C170.04,161.45,169.21,161.76,168.18,161.76z"/>
		<path class="st1" d="M215.23,155.89c0.65,0.69,0.98,1.58,0.98,2.68c0,0.96-0.33,1.74-0.98,2.32c-0.65,0.58-1.39,0.88-2.22,0.88
			h-22.78c-1.17,0-2.06-0.29-2.68-0.88c-0.62-0.58-0.93-1.36-0.93-2.32V81.78c0-2.4,1.2-3.61,3.61-3.61h22.78
			c0.82,0,1.56,0.31,2.22,0.93c0.65,0.62,0.98,1.51,0.98,2.68c0,0.89-0.33,1.67-0.98,2.32c-0.65,0.65-1.39,0.98-2.22,0.98h-19.48
			v23.19h15.25c0.96,0,1.75,0.36,2.37,1.08s0.93,1.67,0.93,2.83c0,0.89-0.31,1.67-0.93,2.32c-0.62,0.65-1.41,0.98-2.37,0.98h-15.25
			v39.37h19.48C213.84,154.86,214.58,155.2,215.23,155.89z"/>
	</g>
</g>
</svg>
