<?xml version="1.0" encoding="utf-8"?>
<!-- Generator: Adobe Illustrator 25.0.1, SVG Export Plug-In . SVG Version: 6.00 Build 0)  -->
<svg version="1.1" id="Laag_1" xmlns="http://www.w3.org/2000/svg" xmlns:xlink="http://www.w3.org/1999/xlink" x="0px" y="0px"
	 viewBox="0 0 283.46 341.64" style="enable-background:new 0 0 283.46 341.64;" xml:space="preserve">
<style type="text/css">
	.st0{fill:#3D1233;}
	.st1{fill:#FFFFFF;}
</style>
<path class="st0" d="M192.47,118.91c-16.22-13.72-16.6-38.05-17.09-69.41l0,0h-67.29l0,0c-0.49,31.36-0.87,55.69-17.09,69.41
	c-26.91,22.76-51.11,50.56-51.11,88.33c0,2.64,0.1,5.25,0.3,7.84c0.13,1.72,0.31,3.44,0.52,5.14c0.32,2.55,0.74,5.07,1.25,7.55
	c9.5,46.41,50.56,81.32,99.78,81.32s90.28-34.91,99.78-81.32c0.51-2.49,0.93-5.01,1.25-7.55c0.22-1.7,0.39-3.41,0.52-5.14
	c0.2-2.59,0.3-5.2,0.3-7.84C243.58,169.47,219.39,141.67,192.47,118.91z"/>
<path class="st0" d="M180.69,32.55h-77.92c-3.22,0-5.83,2.61-5.83,5.83v5.58c0,3.22,2.61,5.83,5.83,5.83h77.92
	c3.22,0,5.83-2.61,5.83-5.83v-5.58C186.52,35.16,183.91,32.55,180.69,32.55z"/>
<g>
	<g>
		<path class="st1" d="M73.12,252.88c-0.94,0-1.75-0.32-2.42-0.96c-0.67-0.64-1.01-1.43-1.01-2.37v-75.26
			c0-0.94,0.34-1.73,1.01-2.37c0.67-0.64,1.48-0.96,2.42-0.96c1.01,0,1.82,0.32,2.42,0.96c0.61,0.64,0.91,1.43,0.91,2.37v75.26
			c0,0.94-0.3,1.74-0.91,2.37C74.94,252.56,74.13,252.88,73.12,252.88z"/>
		<path class="st1" d="M122.21,252.88c-0.94,0-1.75-0.3-2.42-0.91c-0.67-0.61-1.01-1.38-1.01-2.32v-60.61l-7.17,16.67
			c-0.34,0.61-0.79,1.06-1.36,1.36c-0.57,0.3-1.16,0.47-1.77,0.5c-0.61,0.04-1.21-0.1-1.82-0.4c-0.61-0.3-1.04-0.79-1.31-1.46
			l-7.37-16.67v60.61c0,0.94-0.34,1.72-1.01,2.32c-0.67,0.61-1.38,0.91-2.12,0.91c-1.01,0-1.87-0.3-2.58-0.91s-1.06-1.38-1.06-2.32
			v-75.46c0-0.94,0.27-1.68,0.81-2.22c0.54-0.54,1.18-0.87,1.92-1.01c0.74-0.13,1.48-0.05,2.22,0.25c0.74,0.3,1.31,0.86,1.72,1.67
			l10.51,23.33c1.62-3.57,3.43-7.44,5.46-11.62c2.02-4.17,3.84-8.08,5.45-11.72c0.4-0.81,0.94-1.36,1.62-1.67
			c0.67-0.3,1.35-0.39,2.02-0.25c0.67,0.14,1.26,0.47,1.77,1.01c0.5,0.54,0.79,1.28,0.86,2.22v75.46c0,0.94-0.3,1.72-0.91,2.32
			C124.03,252.58,123.22,252.88,122.21,252.88z"/>
		<path class="st1" d="M171.31,252.88c-0.94,0-1.75-0.3-2.42-0.91c-0.67-0.61-1.01-1.38-1.01-2.32v-60.61l-7.17,16.67
			c-0.34,0.61-0.79,1.06-1.36,1.36c-0.57,0.3-1.16,0.47-1.77,0.5c-0.61,0.04-1.21-0.1-1.82-0.4c-0.61-0.3-1.04-0.79-1.31-1.46
			l-7.37-16.67v60.61c0,0.94-0.34,1.72-1.01,2.32c-0.67,0.61-1.38,0.91-2.12,0.91c-1.01,0-1.87-0.3-2.58-0.91s-1.06-1.38-1.06-2.32
			v-75.46c0-0.94,0.27-1.68,0.81-2.22c0.54-0.54,1.18-0.87,1.92-1.01c0.74-0.13,1.48-0.05,2.22,0.25c0.74,0.3,1.31,0.86,1.72,1.67
			l10.51,23.33c1.62-3.57,3.43-7.44,5.46-11.62c2.02-4.17,3.84-8.08,5.45-11.72c0.4-0.81,0.94-1.36,1.62-1.67
			c0.67-0.3,1.35-0.39,2.02-0.25c0.67,0.14,1.26,0.47,1.77,1.01c0.5,0.54,0.79,1.28,0.86,2.22v75.46c0,0.94-0.3,1.72-0.91,2.32
			S172.32,252.88,171.31,252.88z"/>
		<path class="st1" d="M217.42,247.12c0.64,0.67,0.96,1.55,0.96,2.63c0,0.94-0.32,1.7-0.96,2.27c-0.64,0.57-1.36,0.86-2.17,0.86
			h-22.32c-1.15,0-2.02-0.29-2.63-0.86c-0.61-0.57-0.91-1.33-0.91-2.27v-75.26c0-2.36,1.18-3.54,3.54-3.54h22.32
			c0.81,0,1.53,0.3,2.17,0.91c0.64,0.61,0.96,1.48,0.96,2.63c0,0.88-0.32,1.63-0.96,2.27c-0.64,0.64-1.36,0.96-2.17,0.96h-19.09
			v22.73h14.95c0.94,0,1.72,0.35,2.32,1.06c0.61,0.71,0.91,1.63,0.91,2.78c0,0.88-0.3,1.63-0.91,2.27
			c-0.61,0.64-1.38,0.96-2.32,0.96h-14.95v38.59h19.09C216.06,246.11,216.78,246.45,217.42,247.12z"/>
	</g>
</g>
</svg>
