<?xml version="1.0" encoding="utf-8"?>
<!-- Generator: Adobe Illustrator 25.0.1, SVG Export Plug-In . SVG Version: 6.00 Build 0)  -->
<svg version="1.1" id="Laag_1" xmlns="http://www.w3.org/2000/svg" xmlns:xlink="http://www.w3.org/1999/xlink" x="0px" y="0px"
	 viewBox="0 0 141.73 141.73" style="enable-background:new 0 0 141.73 141.73;" xml:space="preserve" fill="#fff">
<g>
	<path d="M79.39,53.02c-0.47-0.29-1.09-0.15-1.38,0.32l-0.75,1.2c-1-0.06-2.01,0.09-2.95,0.43c0.11-0.69,0.16-1.34,0.16-1.81
		c0-2.24-0.98-4.35-2.62-5.76v-1.53c0-0.55-0.45-1-1-1s-1,0.45-1,1v1.53c-1.64,1.41-2.62,3.51-2.62,5.76c0,0.3,0.02,0.6,0.05,0.9
		c-0.91-0.32-1.88-0.46-2.84-0.39l-0.74-1.2c-0.29-0.47-0.91-0.61-1.38-0.32c-0.47,0.29-0.61,0.91-0.32,1.38l0.9,1.45
		c-0.17,1.72,0.28,3.45,1.24,4.9c-0.12,0.01-0.24,0.02-0.36,0.03c-0.43,0.07-0.77,0.4-0.84,0.84c-0.28,1.85,0.17,3.75,1.2,5.31
		c-0.12,0.01-0.25,0.02-0.37,0.04c-0.43,0.07-0.76,0.41-0.83,0.84c-0.28,1.85,0.16,3.74,1.2,5.31c-0.12,0.01-0.25,0.02-0.37,0.04
		c-0.43,0.07-0.76,0.41-0.83,0.84c-0.28,1.85,0.17,3.74,1.21,5.3c-0.13,0.01-0.25,0.02-0.38,0.04c-0.43,0.07-0.76,0.41-0.83,0.84
		c-0.34,2.23,0.64,4.95,2.44,6.76c0.56,0.57,2.37,2.24,4.47,2.71v7.12c0,0.55,0.45,1,1,1s1-0.45,1-1v-7.04
		c1.55-0.17,3.45-0.86,4.78-2.2c1.7-1.71,2.5-4.13,2.14-6.47c-0.07-0.43-0.4-0.77-0.83-0.84c-0.12-0.02-0.25-0.02-0.37-0.04
		c1.03-1.56,1.48-3.45,1.2-5.31c-0.07-0.43-0.4-0.77-0.83-0.84c-0.12-0.02-0.25-0.02-0.37-0.04c1.03-1.56,1.48-3.45,1.2-5.31
		c-0.07-0.43-0.41-0.77-0.84-0.84c-0.12-0.02-0.24-0.02-0.36-0.04c1.03-1.56,1.48-3.45,1.2-5.3c-0.07-0.43-0.4-0.77-0.83-0.84
		c-0.13-0.02-0.25-0.03-0.38-0.04c0.96-1.45,1.41-3.18,1.24-4.91l0.9-1.45C80.01,53.92,79.86,53.31,79.39,53.02z M75.23,79.04
		c-0.22,0.22-0.44,0.4-0.66,0.56c-1.15,0.36-2.2,1-3.05,1.87c-0.11,0.11-0.2,0.24-0.31,0.36c-0.29-0.44-0.62-0.86-0.99-1.24
		c-0.29-0.29-0.62-0.57-0.96-0.82c0,0-0.01,0-0.01-0.01c-0.01-0.01-0.02-0.01-0.02-0.02c-0.04-0.03-0.09-0.06-0.13-0.09
		c-0.59-0.41-1.23-0.72-1.92-0.93c-0.26-0.2-0.48-0.39-0.66-0.57c-1.06-1.07-1.65-2.52-1.64-3.98c0.5-0.03,0.97,0.06,1.44,0.19
		c0.01,0.01,0.03,0.01,0.04,0.02c0.01,0,0.01,0.01,0.02,0.01c0.02,0.01,0.03,0.01,0.05,0.02c0.56,0.16,1.12,0.43,1.62,0.78
		c0.28,0.2,0.53,0.41,0.76,0.64c0.59,0.59,1.03,1.3,1.31,2.1c0.02,0.05,0.05,0.08,0.07,0.12c0.04,0.07,0.07,0.14,0.12,0.2
		c0.05,0.06,0.11,0.09,0.17,0.14c0.04,0.03,0.07,0.07,0.12,0.1c0,0,0.01,0,0.01,0c0.08,0.04,0.17,0.06,0.26,0.07
		c0.04,0.01,0.07,0.03,0.11,0.03c0.05,0,0.11-0.01,0.17-0.02c0.07-0.01,0.15-0.01,0.22-0.03c0,0,0.01,0,0.01,0
		c0.05-0.02,0.09-0.05,0.13-0.08c0.07-0.03,0.13-0.06,0.19-0.11c0.06-0.05,0.11-0.12,0.15-0.19c0.03-0.04,0.06-0.06,0.08-0.11
		c0.26-0.5,0.59-0.95,1-1.37c0.22-0.23,0.46-0.43,0.74-0.62c0.51-0.36,1.06-0.63,1.65-0.8c0.5-0.15,1.01-0.22,1.53-0.22
		C76.88,76.52,76.29,77.97,75.23,79.04z M75.22,72.87c-0.2,0.21-0.43,0.4-0.67,0.56c-0.72,0.23-1.4,0.56-2,0.99
		c-0.38,0.25-0.73,0.55-1.03,0.86c-0.11,0.11-0.2,0.24-0.31,0.36c-0.29-0.44-0.62-0.86-1-1.24c-0.31-0.31-0.65-0.59-1.02-0.86
		c-0.62-0.44-1.32-0.78-2.03-1.01c-0.23-0.16-0.44-0.34-0.66-0.56c-1.07-1.07-1.65-2.52-1.64-3.99c0.53,0.01,1.03,0.07,1.53,0.22
		c0.58,0.17,1.14,0.44,1.67,0.82c0.26,0.18,0.5,0.38,0.73,0.62c0.59,0.59,1.03,1.3,1.31,2.1c0.02,0.04,0.05,0.07,0.07,0.12
		c0.04,0.07,0.07,0.15,0.12,0.21c0.05,0.06,0.11,0.09,0.17,0.14c0.04,0.03,0.07,0.07,0.12,0.1c0,0,0.01,0,0.01,0
		c0.08,0.04,0.17,0.06,0.26,0.07c0.04,0.01,0.07,0.03,0.11,0.03c0.05,0,0.11-0.01,0.17-0.02c0.07-0.01,0.15-0.01,0.22-0.03
		c0,0,0.01,0,0.01,0c0.05-0.02,0.09-0.05,0.13-0.08c0.07-0.03,0.13-0.06,0.19-0.11c0.06-0.05,0.11-0.12,0.15-0.19
		c0.03-0.04,0.06-0.06,0.08-0.1c0.25-0.49,0.58-0.94,0.99-1.34c0.22-0.23,0.45-0.42,0.69-0.6c0.03-0.02,0.05-0.03,0.08-0.05
		c0.48-0.34,1.02-0.6,1.56-0.77c0.02,0,0.04-0.01,0.07-0.02c0.51-0.15,1.03-0.23,1.54-0.22C76.88,70.34,76.29,71.79,75.22,72.87z
		 M75.23,66.68c-0.21,0.21-0.43,0.4-0.67,0.57c-0.68,0.22-1.32,0.53-1.92,0.94c-0.03,0.02-0.07,0.04-0.1,0.06
		c-0.36,0.26-0.69,0.54-1.01,0.87c-0.11,0.11-0.2,0.24-0.31,0.36c-0.29-0.44-0.61-0.86-0.99-1.23c-0.31-0.32-0.66-0.62-1.02-0.86
		c-0.62-0.45-1.31-0.78-2.02-1.01c-0.24-0.17-0.47-0.36-0.68-0.57c-1.06-1.07-1.65-2.52-1.64-3.99c0.5,0.01,1.04,0.07,1.55,0.22
		c0,0,0,0,0,0c0.56,0.17,1.12,0.44,1.62,0.79c0.25,0.17,0.5,0.39,0.76,0.64c0.6,0.6,1.04,1.3,1.31,2.09
		c0.02,0.05,0.05,0.08,0.07,0.12c0.04,0.07,0.07,0.14,0.12,0.2c0.05,0.06,0.11,0.1,0.17,0.14c0.04,0.03,0.07,0.07,0.11,0.09
		c0.01,0,0.01,0,0.02,0c0.07,0.04,0.16,0.05,0.24,0.07c0.05,0.01,0.09,0.03,0.14,0.04c0.04,0,0.09-0.01,0.13-0.01
		c0.09-0.01,0.17-0.01,0.25-0.04c0,0,0.01,0,0.01,0c0.04-0.01,0.07-0.04,0.11-0.06c0.08-0.04,0.15-0.07,0.22-0.13
		c0.06-0.05,0.1-0.11,0.14-0.17c0.03-0.04,0.07-0.07,0.09-0.12c0.25-0.48,0.6-0.95,0.99-1.35c0.23-0.23,0.46-0.42,0.67-0.57
		c0.04-0.02,0.09-0.05,0.13-0.08c0.45-0.33,0.97-0.59,1.51-0.76c0.03-0.01,0.05-0.01,0.08-0.02c0.51-0.15,1.06-0.23,1.54-0.23
		C76.88,64.16,76.29,65.61,75.23,66.68z M70.87,49.18c1.02,1.02,1.62,2.46,1.62,3.98c0,0.96-0.24,2.48-0.59,3.27
		c-0.13,0.11-0.25,0.22-0.37,0.34c-0.12,0.12-0.21,0.25-0.32,0.37c-0.28-0.44-0.6-0.86-0.98-1.25c-0.18-0.18-0.34-0.32-0.5-0.46
		c-0.3-0.7-0.46-1.48-0.46-2.27C69.25,51.64,69.84,50.2,70.87,49.18z M68.22,56.79C68.22,56.79,68.22,56.79,68.22,56.79
		C68.22,56.79,68.22,56.8,68.22,56.79c0.03,0.03,0.06,0.05,0.09,0.07c0.15,0.11,0.31,0.25,0.49,0.43c0.45,0.46,0.81,0.97,1.07,1.51
		c0.09,0.19,0.18,0.39,0.24,0.59c0.01,0.04,0.04,0.07,0.06,0.11c0.04,0.08,0.07,0.16,0.13,0.22c0.06,0.07,0.14,0.13,0.23,0.18
		c0.03,0.02,0.04,0.04,0.07,0.06c0,0,0,0,0,0c0.12,0.06,0.25,0.1,0.39,0.11c0.13,0.01,0.25-0.01,0.37-0.05c0,0,0,0,0.01,0
		c0.04-0.01,0.08-0.05,0.12-0.07c0.07-0.04,0.15-0.07,0.22-0.12c0.07-0.06,0.12-0.14,0.17-0.21c0.02-0.03,0.05-0.05,0.07-0.09
		c0.26-0.5,0.59-0.95,0.99-1.36c1.05-1.06,2.46-1.65,3.89-1.65c0.01,0,0.03,0,0.04,0c0.01,1.46-0.58,2.91-1.64,3.98
		c-0.21,0.21-0.43,0.4-0.68,0.59c-0.68,0.22-1.34,0.53-1.92,0.94c-0.02,0.01-0.03,0.02-0.05,0.03c-0.35,0.23-0.7,0.52-1.06,0.89
		c-0.11,0.11-0.2,0.24-0.3,0.35c-0.29-0.44-0.62-0.86-1-1.24c-0.34-0.34-0.69-0.64-1.03-0.87c-0.62-0.44-1.29-0.76-1.99-0.99
		c-0.22-0.15-0.44-0.34-0.68-0.58c-1.06-1.07-1.65-2.52-1.64-3.98C66.03,55.61,67.24,56.03,68.22,56.79z M75.22,85.21
		c-1.29,1.3-3.33,1.7-4.31,1.65c-0.01,0-0.01,0-0.02,0c-0.01,0-0.01,0-0.02,0c-1.39-0.02-3.06-1.22-4.07-2.24
		c-1.15-1.16-1.88-2.82-1.93-4.28c0.5-0.01,0.98,0.07,1.45,0.2c0,0,0.01,0,0.01,0c0.02,0.01,0.03,0.01,0.05,0.02
		c0.01,0,0.02,0.01,0.03,0.01c0.58,0.16,1.11,0.42,1.59,0.78c0.03,0.02,0.06,0.04,0.1,0.06c0.25,0.18,0.48,0.38,0.69,0.59
		c0.59,0.59,1.03,1.3,1.31,2.1c0.02,0.05,0.05,0.08,0.07,0.12c0.04,0.07,0.07,0.14,0.12,0.2c0.05,0.06,0.12,0.1,0.18,0.14
		c0.04,0.03,0.07,0.07,0.12,0.09c0,0,0.01,0,0.01,0c0.09,0.04,0.19,0.06,0.29,0.08c0.03,0,0.06,0.02,0.09,0.02
		c0.06,0,0.12-0.01,0.18-0.02c0.07-0.01,0.14-0.01,0.21-0.03c0,0,0.01,0,0.01,0c0.05-0.02,0.09-0.05,0.13-0.08
		c0.07-0.03,0.13-0.06,0.19-0.11c0.06-0.05,0.11-0.12,0.15-0.19c0.03-0.04,0.06-0.06,0.08-0.11c0.26-0.5,0.59-0.95,0.99-1.36
		c0.67-0.67,1.49-1.17,2.38-1.42c0.04-0.01,0.07-0.02,0.1-0.04c0.47-0.13,1.01-0.2,1.44-0.19C76.88,82.69,76.29,84.14,75.22,85.21z"
		/>
	<path d="M98.39,64.02c-0.47-0.29-1.09-0.15-1.38,0.32l-0.75,1.2c-1.01-0.06-2.01,0.09-2.95,0.43c0.11-0.68,0.16-1.34,0.16-1.81
		c0-2.24-0.98-4.35-2.62-5.76v-1.53c0-0.55-0.45-1-1-1s-1,0.45-1,1v1.53c-1.64,1.41-2.62,3.51-2.62,5.76c0,0.3,0.02,0.6,0.05,0.89
		c-0.91-0.32-1.88-0.46-2.84-0.39l-0.74-1.2c-0.29-0.47-0.91-0.61-1.38-0.32c-0.47,0.29-0.61,0.91-0.32,1.38l0.9,1.45
		c-0.18,1.85,0.35,3.72,1.47,5.23c-0.2,0.01-0.41,0.03-0.6,0.06c-0.43,0.07-0.76,0.41-0.83,0.84c-0.28,1.85,0.17,3.74,1.21,5.3
		c-0.13,0.01-0.25,0.02-0.38,0.04c-0.43,0.07-0.76,0.41-0.83,0.84c-0.34,2.23,0.64,4.95,2.44,6.76c0.56,0.57,2.37,2.24,4.47,2.71
		v8.12c0,0.55,0.45,1,1,1s1-0.45,1-1v-8.04c1.55-0.17,3.45-0.86,4.78-2.2c1.7-1.71,2.5-4.13,2.14-6.47
		c-0.07-0.43-0.4-0.77-0.83-0.84c-0.12-0.02-0.25-0.02-0.37-0.04c1.03-1.56,1.48-3.45,1.2-5.31c-0.07-0.43-0.4-0.77-0.83-0.84
		c-0.2-0.03-0.4-0.05-0.6-0.06c1.12-1.51,1.65-3.38,1.47-5.24l0.9-1.45C99.01,64.92,98.86,64.31,98.39,64.02z M94.23,78.04
		c-0.22,0.22-0.44,0.4-0.66,0.56c-1.15,0.36-2.2,1-3.05,1.87c-0.11,0.11-0.2,0.24-0.31,0.36c-0.29-0.44-0.62-0.86-0.99-1.24
		c-0.29-0.29-0.62-0.57-0.96-0.82c0,0-0.01,0-0.01-0.01c-0.01-0.01-0.01-0.01-0.02-0.01c-0.04-0.03-0.09-0.06-0.13-0.09
		c-0.59-0.41-1.23-0.72-1.92-0.93c-0.26-0.2-0.47-0.39-0.66-0.57c-1.06-1.07-1.65-2.52-1.64-3.98c0.01,0,0.02,0,0.04,0
		c0.47,0,0.94,0.06,1.4,0.19c0.04,0.02,0.07,0.03,0.11,0.04c0.56,0.16,1.12,0.43,1.62,0.78c0.28,0.2,0.53,0.41,0.76,0.64
		c0.59,0.59,1.03,1.3,1.31,2.1c0.02,0.05,0.05,0.08,0.07,0.12c0.04,0.07,0.07,0.14,0.12,0.2c0.05,0.06,0.12,0.1,0.18,0.15
		c0.04,0.03,0.07,0.07,0.11,0.09c0,0,0.01,0,0.01,0c0.09,0.04,0.19,0.06,0.29,0.08c0.03,0,0.06,0.02,0.09,0.02
		c0.06,0,0.11-0.01,0.17-0.02c0.07-0.01,0.15-0.01,0.22-0.03c0.01,0,0.01,0,0.02,0c0.05-0.02,0.09-0.06,0.14-0.08
		c0.06-0.03,0.13-0.06,0.19-0.11c0.06-0.05,0.1-0.12,0.15-0.18c0.03-0.04,0.07-0.07,0.09-0.11c0.26-0.5,0.59-0.95,1-1.37
		c0.22-0.23,0.46-0.43,0.74-0.62c0.51-0.36,1.06-0.63,1.65-0.8c0.5-0.15,1.01-0.22,1.53-0.22C95.88,75.52,95.29,76.97,94.23,78.04z
		 M89.87,60.18c1.02,1.02,1.62,2.46,1.62,3.98c0,0.96-0.24,2.48-0.59,3.27c-0.12,0.11-0.25,0.22-0.37,0.34
		c-0.12,0.12-0.21,0.25-0.32,0.37c-0.28-0.44-0.6-0.86-0.98-1.25c-0.18-0.18-0.34-0.32-0.5-0.46c-0.3-0.7-0.46-1.47-0.46-2.27
		C88.25,62.64,88.84,61.2,89.87,60.18z M87.22,67.79C87.22,67.79,87.22,67.79,87.22,67.79c0.01,0.01,0.01,0.01,0.01,0.01
		c0.02,0.02,0.05,0.04,0.07,0.06c0.15,0.11,0.31,0.25,0.49,0.43c0.45,0.46,0.81,0.97,1.07,1.51c0.09,0.19,0.18,0.39,0.25,0.59
		c0.01,0.04,0.04,0.07,0.06,0.1c0.04,0.08,0.07,0.16,0.13,0.23c0.07,0.09,0.16,0.15,0.26,0.21c0.02,0.01,0.02,0.02,0.04,0.03
		c0,0,0,0,0,0c0.12,0.06,0.26,0.1,0.4,0.11c0.12,0.01,0.25-0.01,0.37-0.05c0,0,0,0,0.01,0c0.03-0.01,0.06-0.04,0.09-0.05
		c0.09-0.04,0.17-0.08,0.24-0.14c0.06-0.05,0.1-0.12,0.15-0.19c0.03-0.04,0.07-0.07,0.09-0.11c0.26-0.5,0.59-0.96,0.99-1.36
		c1.05-1.06,2.46-1.65,3.89-1.65c0.01,0,0.03,0,0.04,0c0.01,1.46-0.58,2.91-1.64,3.98c-0.21,0.21-0.44,0.41-0.7,0.6
		c-0.19,0.11-0.34,0.29-0.42,0.5c-0.55,0.22-1.08,0.48-1.56,0.82c-0.38,0.25-0.73,0.55-1.03,0.86c-0.11,0.11-0.2,0.24-0.31,0.36
		c-0.29-0.44-0.62-0.86-1-1.24c-0.31-0.31-0.65-0.59-1.02-0.86c-0.49-0.35-1.03-0.62-1.58-0.83c-0.07-0.19-0.18-0.36-0.36-0.48
		c-0.24-0.16-0.48-0.36-0.74-0.62c-1.06-1.07-1.65-2.52-1.64-3.98C85.03,66.62,86.24,67.03,87.22,67.79z M94.22,84.21
		c-1.29,1.3-3.3,1.71-4.31,1.65c-0.01,0-0.01,0-0.02,0c-0.01,0-0.01,0-0.02,0c-1.39-0.02-3.06-1.22-4.07-2.24
		c-1.15-1.16-1.88-2.82-1.93-4.28c0.49,0.01,0.98,0.07,1.45,0.2c0,0,0.01,0,0.01,0c0.02,0.01,0.03,0.01,0.05,0.02
		c0.01,0,0.02,0.01,0.02,0.01c0.58,0.16,1.11,0.42,1.59,0.78c0.03,0.02,0.06,0.04,0.1,0.06c0.25,0.18,0.48,0.38,0.69,0.59
		c0.59,0.59,1.03,1.3,1.31,2.1c0.02,0.05,0.05,0.08,0.07,0.12c0.04,0.07,0.07,0.14,0.12,0.2c0.05,0.06,0.12,0.1,0.19,0.15
		c0.04,0.03,0.07,0.06,0.11,0.09c0,0,0.01,0,0.01,0c0.1,0.05,0.2,0.07,0.31,0.09c0.02,0,0.04,0.02,0.07,0.02
		c0.06,0,0.12-0.01,0.18-0.02c0.07-0.01,0.14-0.01,0.21-0.03c0.01,0,0.01,0,0.02,0c0.05-0.02,0.09-0.06,0.14-0.08
		c0.06-0.03,0.13-0.06,0.19-0.11c0.06-0.05,0.1-0.12,0.15-0.18c0.03-0.04,0.07-0.07,0.09-0.11c0.26-0.5,0.59-0.95,0.99-1.36
		c0.67-0.67,1.49-1.17,2.38-1.42c0.04-0.01,0.07-0.02,0.1-0.04c0.47-0.13,1.01-0.18,1.44-0.19C95.88,81.69,95.29,83.14,94.22,84.21z
		"/>
	<path d="M60.39,63.14c-0.47-0.29-1.09-0.15-1.38,0.32l-0.74,1.2c-0.96-0.06-1.93,0.08-2.84,0.39c0.03-0.3,0.05-0.59,0.05-0.89
		c0-2.24-0.98-4.35-2.62-5.76v-1.53c0-0.55-0.45-1-1-1s-1,0.45-1,1v1.53c-1.64,1.41-2.62,3.51-2.62,5.76c0,0.47,0.05,1.13,0.16,1.81
		c-0.94-0.34-1.94-0.49-2.95-0.43l-0.75-1.2c-0.29-0.47-0.91-0.61-1.38-0.32c-0.47,0.29-0.61,0.91-0.32,1.38l0.9,1.45
		c-0.18,1.86,0.35,3.73,1.47,5.23c-0.2,0.01-0.4,0.03-0.6,0.06c-0.43,0.07-0.76,0.41-0.83,0.84c-0.28,1.85,0.16,3.75,1.2,5.31
		c-0.12,0.01-0.25,0.02-0.37,0.04c-0.43,0.07-0.76,0.41-0.83,0.84c-0.36,2.34,0.44,4.76,2.14,6.47c1.33,1.34,3.23,2.03,4.78,2.2
		v8.04c0,0.55,0.45,1,1,1s1-0.45,1-1v-8.12c2.1-0.46,3.91-2.14,4.47-2.71c1.8-1.82,2.79-4.53,2.44-6.76
		c-0.07-0.43-0.4-0.77-0.83-0.84c-0.12-0.02-0.25-0.03-0.38-0.04c1.04-1.56,1.49-3.45,1.2-5.3c-0.07-0.43-0.4-0.77-0.83-0.84
		c-0.2-0.03-0.4-0.05-0.6-0.06c1.12-1.51,1.65-3.38,1.47-5.24l0.9-1.45C61.01,64.05,60.86,63.43,60.39,63.14z M56.23,77.15
		c-0.19,0.19-0.4,0.37-0.67,0.58c-0.68,0.22-1.33,0.52-1.92,0.93c-0.05,0.03-0.09,0.06-0.13,0.09c-0.01,0.01-0.02,0.01-0.02,0.02
		c0,0-0.01,0-0.01,0.01c-0.35,0.25-0.67,0.53-0.96,0.82c-0.38,0.38-0.71,0.8-0.99,1.24c-0.1-0.12-0.19-0.25-0.3-0.36
		c-0.86-0.87-1.91-1.51-3.06-1.87c-0.22-0.16-0.44-0.34-0.66-0.56c-1.07-1.07-1.65-2.52-1.64-3.99c0.48,0,1.03,0.07,1.53,0.22
		c0.59,0.17,1.14,0.44,1.67,0.82c0.26,0.18,0.5,0.38,0.73,0.62c0.4,0.4,0.73,0.85,0.99,1.35c0.02,0.04,0.06,0.07,0.08,0.11
		c0.05,0.07,0.09,0.13,0.15,0.19c0.05,0.05,0.12,0.07,0.18,0.11c0.05,0.03,0.09,0.06,0.14,0.08c0.01,0,0.01,0,0.02,0
		c0.06,0.02,0.13,0.02,0.19,0.03c0.06,0.01,0.13,0.03,0.19,0.02c0.03,0,0.05-0.02,0.08-0.02c0.1-0.02,0.2-0.04,0.29-0.08
		c0,0,0.01,0,0.01,0c0.05-0.02,0.08-0.07,0.12-0.1c0.06-0.04,0.12-0.08,0.17-0.14c0.05-0.06,0.08-0.13,0.12-0.2
		c0.02-0.04,0.06-0.08,0.07-0.12c0.28-0.8,0.72-1.51,1.31-2.1c0.23-0.23,0.49-0.44,0.76-0.64c0.5-0.35,1.06-0.62,1.62-0.78
		c0.04-0.01,0.07-0.02,0.11-0.04c0.47-0.13,0.93-0.23,1.45-0.19C57.88,74.63,57.29,76.08,56.23,77.15z M57.82,66.64
		c0.01,0,0.03,0,0.04,0c0.01,1.46-0.58,2.91-1.64,3.98c-0.26,0.26-0.51,0.47-0.74,0.62c-0.18,0.12-0.29,0.29-0.36,0.48
		c-0.55,0.22-1.09,0.48-1.59,0.83c-0.37,0.26-0.71,0.55-1.02,0.86c-0.38,0.38-0.71,0.8-0.99,1.24c-0.1-0.11-0.19-0.24-0.3-0.35
		c-0.31-0.33-0.66-0.62-1.02-0.86c-0.49-0.35-1.03-0.62-1.58-0.84c-0.08-0.19-0.21-0.36-0.38-0.47c-0.28-0.2-0.52-0.41-0.74-0.63
		c-1.06-1.07-1.65-2.52-1.64-3.98c1.45-0.02,2.87,0.58,3.93,1.65c0.4,0.4,0.73,0.85,0.99,1.35c0.02,0.03,0.05,0.05,0.07,0.08
		c0.05,0.08,0.1,0.15,0.17,0.22c0.06,0.05,0.14,0.09,0.21,0.12c0.04,0.02,0.07,0.05,0.12,0.07c0,0,0.01,0,0.01,0
		c0.09,0.03,0.18,0.03,0.28,0.03c0.17,0.01,0.34-0.02,0.48-0.1c0,0,0,0,0,0c0.02-0.01,0.04-0.03,0.06-0.05
		c0.09-0.05,0.17-0.11,0.24-0.19c0.05-0.06,0.09-0.14,0.12-0.21c0.02-0.04,0.05-0.07,0.07-0.12c0.07-0.2,0.15-0.4,0.24-0.59
		c0.26-0.54,0.62-1.05,1.07-1.51c0.18-0.19,0.34-0.32,0.5-0.43c0.03-0.02,0.05-0.04,0.07-0.06c0,0,0,0,0.01-0.01c0,0,0,0,0,0
		C55.48,67.04,56.65,66.64,57.82,66.64z M50.25,64.16c0-1.52,0.59-2.96,1.62-3.98c1.02,1.02,1.62,2.46,1.62,3.98
		c0,0.79-0.16,1.57-0.46,2.27c-0.16,0.13-0.33,0.28-0.51,0.46c-0.38,0.39-0.69,0.81-0.98,1.25c-0.11-0.12-0.2-0.25-0.32-0.37
		c-0.12-0.12-0.25-0.23-0.38-0.34C50.49,66.63,50.25,65.11,50.25,64.16z M55.92,83.63c-1.01,1.02-2.68,2.21-4.07,2.24
		c-0.01,0-0.01,0-0.02,0c-0.01,0-0.01,0-0.02,0c-0.98,0.04-3.01-0.35-4.31-1.65c-1.06-1.07-1.65-2.52-1.64-3.98
		c0.5,0,0.97,0.06,1.44,0.19c0.02,0.01,0.03,0.01,0.05,0.02c0.01,0,0.01,0,0.02,0.01c0.01,0.01,0.03,0.01,0.04,0.02
		c0.89,0.25,1.72,0.75,2.39,1.42c0.4,0.4,0.73,0.85,0.99,1.35c0.02,0.04,0.06,0.07,0.08,0.11c0.05,0.07,0.09,0.13,0.15,0.19
		c0.05,0.05,0.12,0.07,0.18,0.11c0.05,0.03,0.09,0.06,0.14,0.08c0.01,0,0.01,0,0.02,0c0.06,0.02,0.12,0.02,0.18,0.03
		c0.07,0.01,0.14,0.03,0.2,0.02c0.02,0,0.04-0.01,0.06-0.01c0.11-0.01,0.22-0.04,0.31-0.09c0,0,0.01,0,0.01,0
		c0.05-0.02,0.07-0.06,0.12-0.09c0.06-0.04,0.13-0.08,0.18-0.14c0.05-0.06,0.08-0.13,0.12-0.2c0.02-0.04,0.06-0.08,0.07-0.12
		c0.28-0.8,0.72-1.51,1.31-2.1c0.21-0.21,0.44-0.41,0.69-0.59c0.03-0.02,0.06-0.04,0.1-0.06c0.48-0.35,1.02-0.61,1.59-0.78
		c0.01,0,0.02-0.01,0.03-0.01c0.02,0,0.03-0.01,0.05-0.02c0,0,0.01,0,0.01,0c0.48-0.14,0.96-0.18,1.45-0.2
		C57.8,80.81,57.07,82.47,55.92,83.63z"/>
</g>
</svg>
