<?xml version="1.0" encoding="utf-8"?>
<!-- Generator: Adobe Illustrator 25.0.1, SVG Export Plug-In . SVG Version: 6.00 Build 0)  -->
<svg version="1.1" id="Laag_1" xmlns="http://www.w3.org/2000/svg" xmlns:xlink="http://www.w3.org/1999/xlink" x="0px" y="0px"
	 viewBox="0 0 141.73 141.73" style="enable-background:new 0 0 141.73 141.73;" xml:space="preserve" fill="#fff">
<g>
	<path d="M76.88,57.51l-1.69,1.06c0.94,1.49,2.15,2.99,3.58,4.43c5.32,5.35,5.62,9.66,4.99,10.29c-0.21,0.21-1.23,0.44-3.05-0.17
		c-1.59-0.53-4.13-1.8-7.16-4.85c-3.62-3.65-7.6-5.83-10.64-5.83c0,0,0,0,0,0c-1.05,0-1.88,0.28-2.4,0.81l0.71,0.71l-0.71-0.7
		l-4.15,4.18c-2.62,2.64,1.21,9.31,4.99,13.11c1.28,1.29,2.36,2.61,3.2,3.92l1.68-1.08c-0.92-1.43-2.08-2.85-3.46-4.24
		c-5.32-5.35-5.62-9.66-4.99-10.29c0.21-0.21,1.23-0.44,3.05,0.17c1.59,0.53,4.12,1.8,7.16,4.85c3.63,3.65,7.6,5.83,10.64,5.83h0
		c1.04,0,1.88-0.28,2.4-0.81l4.15-4.18c2.62-2.64-1.21-9.31-4.99-13.11C78.85,60.26,77.74,58.88,76.88,57.51z M79.6,77.48
		c-0.08,0.08-0.38,0.22-0.99,0.22h0c-1.94,0-5.39-1.38-9.23-5.24c-3.31-3.33-6.15-4.74-7.95-5.34c-0.55-0.18-1.08-0.31-1.58-0.39
		l2.05-2.06c0.08-0.08,0.38-0.22,0.99-0.22c0,0,0,0,0,0c1.94,0,5.39,1.38,9.23,5.24c3.31,3.33,6.15,4.74,7.95,5.34
		c0.55,0.18,1.08,0.31,1.58,0.39L79.6,77.48z"/>
	<path d="M66.9,74.98c-1.44-1.45-2.62-2.93-3.51-4.41l-1.71,1.03c0.97,1.61,2.25,3.22,3.8,4.79c5.32,5.35,5.62,9.65,4.98,10.29l0,0
		l0,0c-0.21,0.21-1.23,0.44-3.05-0.17c-1.59-0.53-4.12-1.79-7.16-4.85c-3.62-3.65-7.6-5.83-10.64-5.83c0,0,0,0,0,0
		c-1.05,0-1.88,0.28-2.4,0.81l0.71,0.71l-0.71-0.71l-4.15,4.18c0,0,0,0,0,0c-0.39,0.39-0.39,1.03,0,1.41c0.39,0.39,1.02,0.39,1.41,0
		c0.08-0.08,0.38-0.22,0.99-0.22c1.94,0,5.39,1.38,9.23,5.24c3.63,3.65,7.61,5.83,10.65,5.83c0,0,0,0,0,0c1.05,0,1.88-0.28,2.4-0.81
		l-0.71-0.71l0.71,0.71l4.15-4.18l0,0C74.51,85.45,70.67,78.78,66.9,74.98z M66.31,90.86L66.31,90.86
		c-0.08,0.08-0.38,0.22-0.99,0.22h0c-1.94,0-5.39-1.38-9.23-5.24c-3.19-3.21-6.66-5.29-9.52-5.73l2.04-2.05l0,0
		c0.08-0.08,0.38-0.22,0.99-0.22c0,0,0,0,0,0c1.94,0,5.39,1.38,9.22,5.24c3.31,3.33,6.15,4.74,7.95,5.33
		c0.55,0.18,1.08,0.31,1.58,0.39L66.31,90.86z"/>
	<path d="M98.46,59.92c-0.39-0.39-1.02-0.39-1.41,0c-0.08,0.08-0.38,0.22-0.99,0.22c-1.94,0-5.39-1.38-9.23-5.24
		c-3.63-3.65-7.61-5.83-10.64-5.83c-1.05,0-1.88,0.28-2.41,0.81l-4.15,4.18c0,0,0,0,0,0c-2.62,2.64,1.21,9.31,4.99,13.11
		c1.44,1.45,2.62,2.93,3.51,4.41l1.71-1.03c-0.97-1.61-2.25-3.22-3.8-4.79c-5.32-5.35-5.62-9.66-4.98-10.29c0,0,0,0,0,0l0,0l0,0
		c0.21-0.21,1.23-0.44,3.05,0.17c1.59,0.53,4.12,1.79,7.16,4.85c3.62,3.65,7.6,5.83,10.64,5.83c0,0,0,0,0,0
		c1.04,0,1.88-0.28,2.4-0.81l-0.71-0.71l0.71,0.7l4.15-4.18C98.85,60.95,98.85,60.31,98.46,59.92z M92.89,64.11L92.89,64.11
		c-0.08,0.08-0.38,0.22-0.99,0.22c0,0,0,0,0,0c-1.94,0-5.39-1.38-9.22-5.24c-3.31-3.33-6.15-4.74-7.95-5.34
		c-0.55-0.18-1.08-0.31-1.58-0.39l2.04-2.06c0.08-0.08,0.38-0.22,0.99-0.22c1.94,0,5.39,1.38,9.23,5.24
		c3.19,3.21,6.66,5.29,9.51,5.74L92.89,64.11z"/>
</g>
</svg>
