<?xml version="1.0" encoding="utf-8"?>
<!-- Generator: Adobe Illustrator 25.0.1, SVG Export Plug-In . SVG Version: 6.00 Build 0)  -->
<svg version="1.1" id="Laag_1" xmlns="http://www.w3.org/2000/svg" xmlns:xlink="http://www.w3.org/1999/xlink" x="0px" y="0px"
	 viewBox="0 0 141.73 141.73" style="enable-background:new 0 0 141.73 141.73;" xml:space="preserve" fill="#fff">
<g>
	<path d="M69.75,63.5c-1.06,0.45-2.03,1.14-2.81,1.99c-0.37,0.41-0.34,1.04,0.07,1.41c0.19,0.17,0.43,0.26,0.67,0.26
		c0.27,0,0.54-0.11,0.74-0.33c0.58-0.64,1.31-1.16,2.11-1.5c0.51-0.22,0.75-0.8,0.53-1.31C70.85,63.52,70.26,63.28,69.75,63.5z"/>
	<path d="M66.87,70.87c0-0.38,0.04-0.76,0.11-1.13c0.1-0.54-0.25-1.07-0.79-1.17c-0.54-0.1-1.07,0.25-1.17,0.79
		c-0.1,0.5-0.14,1.01-0.14,1.51c0,2.56,1.24,4.98,3.32,6.49c0.18,0.13,0.38,0.19,0.58,0.19c0.31,0,0.62-0.14,0.81-0.42
		c0.32-0.45,0.22-1.07-0.23-1.4C67.8,74.6,66.87,72.79,66.87,70.87z"/>
	<path d="M62.87,45.87c-2.21,0-4,1.79-4,4c0,0.55,0.45,1,1,1s1-0.45,1-1c0-1.1,0.9-2,2-2c0.55,0,1-0.45,1-1S63.42,45.87,62.87,45.87
		z"/>
	<path d="M49.87,71.87c-2.21,0-4,1.79-4,4c0,0.55,0.45,1,1,1s1-0.45,1-1c0-1.1,0.9-2,2-2c0.55,0,1-0.45,1-1S50.42,71.87,49.87,71.87
		z"/>
	<path d="M63.87,92.87c0,0.55,0.45,1,1,1s1-0.45,1-1c0-0.55,0.45-1,1-1c0.55,0,1-0.45,1-1s-0.45-1-1-1
		C65.21,89.87,63.87,91.21,63.87,92.87z"/>
	<path d="M92.87,80.87c-1.53,0-2.93,0.58-3.99,1.53l-6.05-4.84c1.29-1.91,2.04-4.21,2.04-6.69c0-2.56-0.81-4.93-2.18-6.88l4.28-3.57
		c1.05,0.9,2.41,1.45,3.9,1.45c3.31,0,6-2.69,6-6s-2.69-6-6-6s-6,2.69-6,6c0,1.1,0.3,2.13,0.82,3.02l-4.28,3.57
		c-2.18-2.21-5.2-3.58-8.54-3.58c-1.49,0-2.91,0.29-4.23,0.78l-1.89-3.96c1.88-1.26,3.12-3.4,3.12-5.82c0-3.86-3.14-7-7-7
		s-7,3.14-7,7s3.14,7,7,7c0.72,0,1.42-0.11,2.08-0.31l1.89,3.96c-3.56,2.08-5.96,5.94-5.96,10.35c0,0.53,0.05,1.05,0.11,1.56
		l-4.56,0.99c-0.99-2.66-3.55-4.56-6.55-4.56c-3.86,0-7,3.14-7,7s3.14,7,7,7s7-3.14,7-7c0-0.16-0.01-0.33-0.02-0.49l4.55-0.99
		c1.1,3.59,3.86,6.46,7.37,7.74l-1.3,4.77c-0.2-0.02-0.4-0.03-0.6-0.03c-3.31,0-6,2.69-6,6s2.69,6,6,6s6-2.69,6-6
		c0-2.41-1.43-4.48-3.48-5.44l1.3-4.77c0.71,0.13,1.43,0.21,2.18,0.21c3.43,0,6.51-1.45,8.7-3.76l6.06,4.85
		c-0.48,0.86-0.76,1.86-0.76,2.91c0,3.31,2.69,6,6,6s6-2.69,6-6S96.17,80.87,92.87,80.87z M90.87,51.87c2.21,0,4,1.79,4,4
		s-1.79,4-4,4s-4-1.79-4-4S88.66,51.87,90.87,51.87z M57.87,49.87c0-2.76,2.24-5,5-5s5,2.24,5,5s-2.24,5-5,5
		S57.87,52.62,57.87,49.87z M49.87,80.87c-2.76,0-5-2.24-5-5s2.24-5,5-5s5,2.24,5,5S52.62,80.87,49.87,80.87z M70.87,92.87
		c0,2.21-1.79,4-4,4s-4-1.79-4-4s1.79-4,4-4S70.87,90.66,70.87,92.87z M72.87,80.87c-5.51,0-10-4.49-10-10c0-5.51,4.49-10,10-10
		c5.51,0,10,4.49,10,10C82.87,76.38,78.38,80.87,72.87,80.87z M92.87,90.87c-2.21,0-4-1.79-4-4s1.79-4,4-4s4,1.79,4,4
		S95.07,90.87,92.87,90.87z"/>
	<path d="M92.87,83.87c-1.65,0-3,1.35-3,3c0,0.55,0.45,1,1,1s1-0.45,1-1c0-0.55,0.45-1,1-1c0.55,0,1-0.45,1-1
		S93.42,83.87,92.87,83.87z"/>
	<path d="M88.87,56.87c0.55,0,1-0.45,1-1c0-0.55,0.45-1,1-1c0.55,0,1-0.45,1-1s-0.45-1-1-1c-1.65,0-3,1.35-3,3
		C87.87,56.42,88.31,56.87,88.87,56.87z"/>
</g>
</svg>
