<?xml version="1.0" encoding="utf-8"?>
<!-- Generator: Adobe Illustrator 25.0.1, SVG Export Plug-In . SVG Version: 6.00 Build 0)  -->
<svg version="1.1" id="Laag_1" xmlns="http://www.w3.org/2000/svg" xmlns:xlink="http://www.w3.org/1999/xlink" x="0px" y="0px"
	 viewBox="0 0 141.73 141.73" style="enable-background:new 0 0 141.73 141.73;" xml:space="preserve" fill="#fff">
<g>
	<path d="M70.87,92.91c-8.27,0-15-6.73-15-15c0-13.66,13.7-28.08,14.28-28.69c0.38-0.39,1.07-0.39,1.44,0
		c0.58,0.61,14.28,15.03,14.28,28.69C85.87,86.18,79.14,92.91,70.87,92.91z M70.87,51.39c-2.83,3.18-13,15.4-13,26.52
		c0,7.17,5.83,13,13,13s13-5.83,13-13C83.87,66.78,73.7,54.57,70.87,51.39z"/>
	<path d="M61.38,74.73c-0.07,0-0.15-0.01-0.23-0.03c-0.54-0.12-0.87-0.66-0.75-1.2c0.36-1.54,0.89-3.18,1.59-4.86
		c0.21-0.51,0.8-0.75,1.31-0.54c0.51,0.21,0.75,0.8,0.54,1.31c-0.66,1.58-1.16,3.11-1.49,4.54C62.24,74.41,61.83,74.73,61.38,74.73z
		"/>
	<path d="M66.75,88.02c-0.14,0-0.28-0.03-0.41-0.09c-3.58-1.62-6.04-5.05-6.42-8.95c-0.05-0.55,0.35-1.04,0.9-1.09
		c0.56-0.05,1.04,0.35,1.09,0.9c0.31,3.19,2.32,6,5.26,7.32c0.5,0.23,0.73,0.82,0.5,1.32C67.5,87.81,67.13,88.02,66.75,88.02z"/>
</g>
</svg>
